<svg viewBox="0 0 400 300" fill="none" xmlns="http://www.w3.org/2000/svg">
  <rect width="400" height="300" fill="#F8FAFC"/>
  <!-- Cerebrum -->
  <path d="M100 150C100 80 160 50 200 50C240 50 300 80 300 150C300 200 260 230 200 230C140 230 100 200 100 150Z" fill="#EEF2FF" stroke="#4F46E5" stroke-width="4"/>
  <path d="M120 130C140 110 180 110 200 130M200 130C220 150 260 150 280 130" stroke="#4F46E5" stroke-width="2" opacity="0.3"/>
  <path d="M150 180C170 200 230 200 250 180" stroke="#4F46E5" stroke-width="2" opacity="0.3"/>
  <!-- Cerebellum -->
  <path d="M220 230C220 250 250 270 280 260C310 250 310 220 290 210" fill="#E0E7FF" stroke="#4F46E5" stroke-width="3"/>
  <!-- Brainstem -->
  <path d="M190 230L180 280H210L205 230" fill="#CBD5E1" stroke="#64748B" stroke-width="3"/>
  <!-- Labels -->
  <text x="175" y="40" fill="#4F46E5" font-family="sans-serif" font-size="12" font-weight="bold">CEREBRUM</text>
  <text x="290" y="280" fill="#4F46E5" font-family="sans-serif" font-size="12" font-weight="bold">CEREBELLUM</text>
  <text x="120" y="290" fill="#64748B" font-family="sans-serif" font-size="12" font-weight="bold">BRAIN STEM</text>
</svg>
